<svg width="671" height="152" viewBox="0 0 671 152" fill="none" xmlns="http://www.w3.org/2000/svg">
<path d="M5.51343e-07 33.7695H21.0438V45.8555C25.6885 42.3956 30.594 39.4096 35.7602 36.8977C40.9263 34.3857 46.0688 32.4661 51.1875 31.1391L57.3727 50.4055C49.268 51.2112 42.1349 53.0359 35.9734 55.8797C29.8594 58.676 24.8828 62.6336 21.0438 67.7523V117.66H5.51343e-07V33.7695ZM69.1031 75.4305C69.1031 69.743 70.2643 64.3161 72.5867 59.15C74.9091 53.9365 78.2505 49.3391 82.6109 45.3578C86.9714 41.3766 92.3034 38.201 98.607 35.8312C104.958 33.4615 112.162 32.2766 120.22 32.2766C128.229 32.2766 135.434 33.4852 141.832 35.9023C148.278 38.2721 153.728 41.5424 158.184 45.7133C162.686 49.8841 166.122 54.7896 168.492 60.4297C170.909 66.0698 172.118 72.1128 172.118 78.5586C172.118 79.3643 172.094 80.2411 172.047 81.1891C172.047 82.0896 171.999 82.919 171.905 83.6773H92.5641C93.4646 86.1893 94.9102 88.488 96.9008 90.5734C98.9388 92.6589 101.474 94.4599 104.508 95.9766C107.541 97.4932 111.048 98.6781 115.03 99.5312C119.011 100.337 123.419 100.74 128.253 100.74C133.088 100.74 137.898 100.242 142.685 99.2469C147.472 98.2042 152.046 96.9008 156.406 95.3367L163.516 111.404C160.767 112.684 157.97 113.821 155.127 114.816C152.33 115.764 149.392 116.57 146.311 117.234C143.278 117.85 140.078 118.324 136.713 118.655C133.396 118.987 129.888 119.153 126.191 119.153C116.76 119.153 108.489 118.016 101.38 115.741C94.2703 113.466 88.3221 110.361 83.5352 106.427C78.7482 102.493 75.1461 97.8724 72.7289 92.5641C70.3117 87.2557 69.1031 81.5445 69.1031 75.4305ZM149.795 67.2547C149.036 64.9323 147.851 62.7758 146.24 60.7852C144.676 58.7471 142.709 56.9935 140.339 55.5242C137.969 54.0075 135.22 52.8227 132.092 51.9695C128.964 51.1164 125.528 50.6898 121.784 50.6898C117.802 50.6898 114.177 51.1401 110.906 52.0406C107.636 52.9411 104.768 54.1497 102.304 55.6664C99.8393 57.1831 97.7776 58.9367 96.1188 60.9273C94.5073 62.918 93.3224 65.0271 92.5641 67.2547H149.795ZM183.209 33.6984H207.594L229.42 84.175L235.107 98.3227L240.795 84.175L262.62 33.6984H287.005L247.264 117.66H222.95L183.209 33.6984ZM312.813 22.3234C310.727 22.3234 308.831 22.0391 307.125 21.4703C305.466 20.8542 304.044 20.0484 302.859 19.0531C301.674 18.0104 300.75 16.8255 300.087 15.4984C299.471 14.124 299.163 12.6784 299.163 11.1617C299.163 9.59765 299.471 8.15208 300.087 6.825C300.75 5.45052 301.674 4.26562 302.859 3.27031C304.044 2.275 305.466 1.49296 307.125 0.924214C308.831 0.308068 310.727 -4.93228e-06 312.813 -4.93228e-06C314.945 -4.93228e-06 316.841 0.308068 318.5 0.924214C320.206 1.49296 321.652 2.275 322.837 3.27031C324.022 4.26562 324.922 5.45052 325.538 6.825C326.202 8.15208 326.534 9.59765 326.534 11.1617C326.534 12.6784 326.202 14.124 325.538 15.4984C324.922 16.8255 324.022 18.0104 322.837 19.0531C321.652 20.0484 320.206 20.8542 318.5 21.4703C316.841 22.0391 314.945 22.3234 312.813 22.3234ZM302.291 33.7695H323.334V117.66H302.291V33.7695Z" fill="black"/>
<path d="M390.802 51.2586H347.791V33.7695H429.833L378.077 100.171H426.989V117.66H339.402L390.802 51.2586ZM443.341 91.2133C443.341 87.1846 444.217 83.5115 445.971 80.1937C447.725 76.876 450.355 74.0323 453.863 71.6625C457.37 69.2453 461.73 67.3969 466.944 66.1172C472.205 64.7901 478.319 64.1266 485.286 64.1266C490.452 64.1266 495.879 64.5057 501.566 65.2641C507.301 66.0224 513.202 67.1836 519.269 68.7477C519.032 66.0935 518.226 63.6526 516.852 61.425C515.477 59.15 513.558 57.2068 511.093 55.5953C508.676 53.9365 505.737 52.6568 502.277 51.7562C498.865 50.8557 494.978 50.4055 490.618 50.4055C488.248 50.4055 485.641 50.5477 482.798 50.832C479.954 51.1164 477.015 51.543 473.982 52.1117C470.949 52.6805 467.939 53.3914 464.953 54.2445C462.015 55.0977 459.266 56.1167 456.706 57.3016L450.308 40.0258C453.483 38.8883 456.872 37.8456 460.474 36.8977C464.124 35.9497 467.844 35.144 471.636 34.4805C475.428 33.7695 479.219 33.2245 483.011 32.8453C486.803 32.4661 490.476 32.2766 494.03 32.2766C509.719 32.2766 521.378 36.2815 529.009 44.2914C536.639 52.3013 540.455 64.5768 540.455 81.118V117.66H519.411V109.769C517.231 111.048 514.837 112.257 512.23 113.395C509.671 114.532 506.875 115.527 503.841 116.38C500.808 117.234 497.538 117.897 494.03 118.371C490.571 118.892 486.897 119.153 483.011 119.153C476.47 119.153 470.712 118.442 465.735 117.02C460.806 115.598 456.683 113.632 453.365 111.12C450.047 108.608 447.535 105.669 445.829 102.304C444.17 98.8914 443.341 95.1945 443.341 91.2133ZM465.522 90.5023C465.522 91.8768 465.877 93.2039 466.588 94.4836C467.299 95.7159 468.437 96.8297 470.001 97.825C471.565 98.7729 473.555 99.5549 475.973 100.171C478.437 100.74 481.4 101.024 484.859 101.024C488.556 101.024 492.135 100.692 495.595 100.029C499.054 99.3654 502.277 98.4885 505.263 97.3984C508.249 96.3083 510.951 95.0523 513.368 93.6305C515.785 92.2086 517.8 90.7393 519.411 89.2227V85.5258C516.188 84.6253 512.989 83.8669 509.813 83.2508C506.685 82.6346 503.676 82.1607 500.784 81.8289C497.941 81.4497 495.239 81.1891 492.68 81.0469C490.168 80.9047 487.964 80.8336 486.068 80.8336C482.134 80.8336 478.864 81.0943 476.257 81.6156C473.65 82.137 471.541 82.8479 469.93 83.7484C468.318 84.6016 467.181 85.6206 466.517 86.8055C465.854 87.9904 465.522 89.2227 465.522 90.5023ZM588.798 151.927H567.755V33.7695H588.798V41.6609C590.647 40.3812 592.827 39.1727 595.339 38.0352C597.851 36.8977 600.553 35.9023 603.444 35.0492C606.335 34.1961 609.321 33.5325 612.402 33.0586C615.482 32.5372 618.563 32.2766 621.644 32.2766C628.753 32.2766 635.27 33.3193 641.195 35.4047C647.166 37.4901 652.285 40.4286 656.551 44.2203C660.816 48.012 664.134 52.562 666.504 57.8703C668.921 63.1312 670.13 68.9609 670.13 75.3594C670.13 82.0422 668.874 88.0852 666.362 93.4883C663.85 98.844 660.366 103.441 655.911 107.28C651.503 111.072 646.242 114.011 640.128 116.096C634.062 118.134 627.473 119.153 620.364 119.153C617.331 119.153 614.321 118.964 611.335 118.584C608.397 118.205 605.553 117.684 602.804 117.02C600.102 116.357 597.543 115.575 595.126 114.674C592.756 113.726 590.647 112.707 588.798 111.617V151.927ZM588.798 91.2844C590.931 92.9906 593.183 94.4362 595.552 95.6211C597.922 96.806 600.339 97.7776 602.804 98.5359C605.269 99.2943 607.757 99.863 610.269 100.242C612.781 100.574 615.222 100.74 617.591 100.74C622.426 100.74 626.715 100.1 630.459 98.8203C634.251 97.4932 637.427 95.6922 639.986 93.4172C642.593 91.1422 644.583 88.4643 645.958 85.3836C647.332 82.3029 648.02 78.9615 648.02 75.3594C648.02 71.9943 647.332 68.8187 645.958 65.8328C644.631 62.8469 642.688 60.2401 640.128 58.0125C637.616 55.7375 634.559 53.9602 630.957 52.6805C627.402 51.3534 623.397 50.6898 618.942 50.6898C616.098 50.6898 613.255 50.9742 610.411 51.543C607.567 52.0643 604.818 52.8227 602.164 53.818C599.557 54.8133 597.093 56.0219 594.77 57.4437C592.495 58.8656 590.505 60.4534 588.798 62.207V91.2844Z" fill="#43A054"/>
</svg>
